<svg width="7" height="12" viewBox="0 0 7 12" fill="none" xmlns="http://www.w3.org/2000/svg">
<path d="M0.103137 6.44048C-0.18297 7.04298 0.141876 7.33098 0.883048 7.82298C1.51314 8.23997 2.3836 8.39247 2.94274 8.45347C2.71358 8.68947 3.76372 7.60748 0.739294 10.724C0.0980029 11.3825 1.13042 12.439 1.77124 11.7945L3.50609 10.002C4.17025 10.6865 4.80687 11.3425 5.24094 11.797C5.88223 12.444 6.91417 11.3965 6.27988 10.7265C6.23228 10.678 3.92895 8.31097 4.06943 8.45597C4.63558 8.39497 5.49297 8.23347 6.11559 7.82548L6.11513 7.82498C6.8563 7.33048 7.18114 7.04298 6.89924 6.44048C6.72888 6.09848 6.26961 5.81248 5.65819 6.30698C5.65819 6.30698 4.83254 6.98448 3.50095 6.98448C2.1689 6.98448 1.34371 6.30698 1.34371 6.30698C0.73276 5.80998 0.271628 6.09848 0.103137 6.44048V6.44048Z" fill="#162612"/>
<path d="M3.50007 6.07098C5.12337 6.07098 6.44889 4.71198 6.44889 3.03899C6.44889 1.359 5.12337 0 3.50007 0C1.8763 0 0.550781 1.359 0.550781 3.03899C0.550781 4.71198 1.8763 6.07098 3.50007 6.07098ZM3.50007 1.53949C4.29771 1.53949 4.94834 2.20999 4.94834 3.03899C4.94834 3.86099 4.29771 4.53148 3.50007 4.53148C2.70242 4.53148 2.0518 3.86099 2.0518 3.03899C2.05133 2.20949 2.70195 1.53949 3.50007 1.53949V1.53949Z" fill="#162612"/>
</svg>
