<svg width="148" height="51" viewBox="0 0 148 51" fill="none" xmlns="http://www.w3.org/2000/svg">
<path d="M60.8189 13.0466C60.8189 17.2362 57.7646 20.4183 53.5807 20.4183C49.3968 20.4183 46.3087 17.2607 46.3087 13.0466C46.3087 8.83243 49.3968 5.63495 53.5807 5.63495C57.7646 5.63495 60.8189 8.86007 60.8189 13.0466ZM66.065 13.0466C66.065 5.84075 60.5795 1 53.5807 1C46.5819 1 41.0596 5.80389 41.0596 13.0466C41.0596 20.2893 46.585 25.0256 53.5807 25.0256C60.5764 25.0256 66.065 20.2555 66.065 13.0466ZM39.4818 4.22512C39.4818 3.09479 38.6929 2.3054 37.4927 1.85696C35.787 1.2513 33.9855 0.960924 32.1761 1C25.4535 1 19.6212 6.1479 19.6212 12.979C19.6212 20.3507 24.9716 25.0256 32.1085 25.0256C34.0338 25.0486 35.9473 24.7229 37.7567 24.0642C38.8556 23.6188 39.8164 22.7956 39.8164 21.6622C39.8222 21.3585 39.7668 21.0567 39.6533 20.775C39.5398 20.4932 39.3707 20.2373 39.156 20.0225C38.9413 19.8077 38.6855 19.6384 38.404 19.5249C38.1224 19.4113 37.8208 19.3558 37.5172 19.3617C36.0438 19.3617 35.39 20.5289 32.0625 20.5289C27.9921 20.5289 24.7997 17.4051 24.7997 12.979C24.7997 8.67885 28.0934 5.42609 32.0717 5.42609C35.1413 5.42609 35.6754 6.5257 37.1826 6.5257C37.487 6.53462 37.79 6.48121 38.0729 6.36875C38.3559 6.25629 38.6129 6.08716 38.8282 5.87173C39.0435 5.65629 39.2126 5.39911 39.325 5.11596C39.4374 4.8328 39.4907 4.52965 39.4818 4.22512ZM4.93907 15.1076H14.234C14.5126 15.1044 14.7879 15.0462 15.0441 14.9363C15.3002 14.8264 15.5322 14.6671 15.7267 14.4673C15.9212 14.2676 16.0744 14.0314 16.1775 13.7723C16.2805 13.5132 16.3315 13.2363 16.3275 12.9575C16.3398 12.3888 16.1265 11.8384 15.7341 11.4267C15.3417 11.0151 14.8023 10.7758 14.234 10.7614H4.93907V5.70253H16.0205C16.3045 5.69935 16.5851 5.63985 16.846 5.52748C17.1069 5.41511 17.3429 5.2521 17.5405 5.04787C17.738 4.84364 17.8931 4.60225 17.9968 4.33766C18.1005 4.07307 18.1508 3.79053 18.1447 3.50638C18.1512 3.22197 18.1013 2.9391 17.9977 2.67415C17.8942 2.40921 17.7392 2.16745 17.5416 1.9629C17.344 1.75834 17.1078 1.59505 16.8467 1.48249C16.5856 1.36993 16.3048 1.31033 16.0205 1.30715H2.47107C2.14969 1.29769 1.82968 1.35293 1.53004 1.46959C1.2304 1.58624 0.957234 1.76195 0.726756 1.98626C0.496278 2.21058 0.313184 2.47894 0.188342 2.77542C0.0634998 3.0719 -0.000546748 3.39045 3.51584e-06 3.71217V22.2796C-0.000123374 22.6012 0.0642111 22.9196 0.189201 23.2159C0.314191 23.5122 0.497298 23.7803 0.727688 24.0046C0.958079 24.2288 1.23107 24.4045 1.53052 24.5213C1.82997 24.6382 2.1498 24.6937 2.47107 24.6846H16.0205C16.5888 24.6634 17.1267 24.4225 17.5213 24.0127C17.9158 23.6029 18.1362 23.056 18.1362 22.487C18.1362 21.9179 17.9158 21.371 17.5213 20.9612C17.1267 20.5514 16.5888 20.3105 16.0205 20.2893H4.93907V15.1076Z" fill="#6DAA26"/>
<path d="M119.082 31.165V37.7258C119.082 39.6384 119.365 40.9765 119.932 41.7403C120.503 42.5021 121.467 42.886 122.808 42.886C124.149 42.886 125.107 42.5082 125.669 41.7557C126.231 41.0032 126.501 39.6578 126.501 37.7258V31.165H128.828V38.9483C128.828 40.9571 128.316 42.4775 127.293 43.5095C126.27 44.5416 124.756 45.0535 122.753 45.0453C120.776 45.0453 119.273 44.5272 118.243 43.4911C117.215 42.4529 116.709 40.9294 116.709 38.9329V31.165H119.082ZM113.525 31.165V44.4955H111.318V42.0782C110.849 42.9896 110.146 43.7594 109.28 44.3081C108.443 44.822 107.478 45.0873 106.496 45.073C104.587 45.073 103.043 44.4187 101.891 43.101C100.74 41.7833 100.139 40.0295 100.139 37.8794C100.139 35.7293 100.704 33.9448 101.842 32.6578C102.981 31.3708 104.495 30.7166 106.398 30.7166C107.417 30.673 108.426 30.9344 109.297 31.4672C110.167 32 110.859 32.7802 111.285 33.7083V31.165H113.525ZM111.318 37.9654C111.318 36.4583 110.909 35.2471 110.091 34.3318C109.691 33.877 109.196 33.5165 108.641 33.2764C108.086 33.0363 107.484 32.9226 106.88 32.9434C105.513 32.9434 104.446 33.3653 103.681 34.2089C102.916 35.0526 102.531 36.2361 102.527 37.7596C102.527 39.3732 102.913 40.6141 103.684 41.4823C104.455 42.3577 105.554 42.7939 106.969 42.7939C108.322 42.7939 109.391 42.3731 110.161 41.5223C110.932 40.6714 111.318 39.4858 111.318 37.9654ZM94.9142 33.0509H92.4585V31.165H94.9142V25.799H97.2379V31.165H99.6936V33.0448H97.2379V44.4955H94.9142V33.0509ZM82.1598 42.2656L84.1121 40.9571C84.4239 41.6032 84.9056 42.1522 85.5057 42.5451C86.1018 42.9072 86.7884 43.0925 87.4856 43.0795C88.1359 43.1095 88.7766 42.9142 89.2998 42.5266C89.5217 42.3559 89.7 42.1349 89.8201 41.8818C89.9401 41.6287 89.9985 41.3508 89.9905 41.0707C89.995 40.8547 89.9554 40.6401 89.8741 40.4399C89.7928 40.2397 89.6715 40.0583 89.5177 39.9066C89.042 39.5116 88.4889 39.2207 87.8939 39.0527L87.5163 38.9176C84.2768 37.8057 82.6571 36.4081 82.6571 34.7249C82.6424 34.1742 82.7524 33.6274 82.9788 33.1252C83.2053 32.6231 83.5423 32.1787 83.9647 31.8254C84.8406 31.0759 85.9743 30.7022 87.3659 30.7043C88.3995 30.6734 89.4233 30.9116 90.3373 31.3954C91.1335 31.8272 91.7592 32.5172 92.1116 33.352L90.2698 34.4915C90.0217 33.9099 89.6032 33.4173 89.0696 33.0786C88.5153 32.7411 87.8765 32.5685 87.2278 32.581C86.6305 32.5573 86.0458 32.7578 85.5886 33.1431C85.3872 33.323 85.2278 33.5451 85.1218 33.7935C85.0157 34.0419 84.9654 34.3106 84.9747 34.5806C84.9747 35.3945 85.8587 36.0826 87.6207 36.6324C87.9553 36.7429 88.2162 36.8228 88.4127 36.8812C89.8452 37.348 90.85 37.8794 91.4271 38.4753C92.0109 39.1217 92.3155 39.9731 92.2743 40.8434C92.2958 41.4237 92.1861 42.0013 91.9533 42.5332C91.7205 43.065 91.3706 43.5374 90.9298 43.915C90.0355 44.6952 88.8649 45.0863 87.4181 45.0883C86.3214 45.1215 85.2337 44.8808 84.2533 44.388C83.3603 43.8987 82.6319 43.1559 82.1598 42.2533V42.2656ZM71.063 50.9949L74.6729 43.187L69.4545 31.165H72.0883L75.9622 40.739L80.0571 31.165H82.5742L73.6385 50.9949H71.063ZM68.1223 31.165V44.2621C68.1223 45.7098 68.0251 46.7398 67.8307 47.352C67.6361 47.9652 67.308 48.5275 66.8699 48.9984C66.2429 49.6749 65.4614 50.1892 64.5922 50.4973C63.5998 50.8467 62.5529 51.0152 61.5011 50.9949C59.4812 50.9949 57.9075 50.5331 56.7799 49.6096C55.6472 48.6882 55.0609 47.3766 55.0088 45.6873H57.5719V45.8623C57.5466 46.3035 57.6273 46.7443 57.8073 47.1477C57.9873 47.5512 58.2613 47.9057 58.6064 48.1814C59.2981 48.724 60.2732 48.9963 61.5318 48.9984C62.334 49.0189 63.1314 48.8681 63.8708 48.5561C64.4906 48.2822 65.0075 47.8187 65.3473 47.2322C65.5619 46.8783 65.7097 46.4878 65.7832 46.0804C65.8874 45.4595 65.9326 44.8301 65.9183 44.2006V41.9646C65.449 42.8596 64.751 43.6142 63.8954 44.1515C63.0492 44.6652 62.0764 44.9322 61.0867 44.9224C59.1732 44.9224 57.6384 44.2713 56.4822 42.9689C55.3127 41.6728 54.7264 39.9404 54.7264 37.7903C54.7264 35.6403 55.2942 33.8895 56.43 32.6117C57.5658 31.334 59.0822 30.6981 60.9854 30.6981C62.0058 30.6755 63.0127 30.9348 63.8954 31.4476C64.7532 31.9792 65.4395 32.7471 65.8722 33.6591V31.165H68.1223ZM65.9183 37.8733C65.9183 36.3774 65.51 35.1765 64.6904 34.2611C64.2865 33.8112 63.7888 33.4555 63.2323 33.2194C62.6759 32.9832 62.0744 32.8722 61.4704 32.8943C60.1034 32.8943 59.0361 33.3171 58.2687 34.1628C57.5013 35.0075 57.1207 36.1839 57.1207 37.7013C57.1207 39.3107 57.5075 40.5547 58.2779 41.424C59.0484 42.2932 60.1412 42.7355 61.5594 42.7355C62.9162 42.7355 63.9844 42.3086 64.7549 41.4485C65.5254 40.5885 65.9183 39.3937 65.9183 37.8733ZM40.2652 44.4955V31.165H42.4999V33.223C43.0149 32.4214 43.726 31.7648 44.5658 31.3155C45.4327 30.8882 46.3901 30.6774 47.3561 30.7012C48.9298 30.7012 50.1577 31.1189 51.0397 31.9544C51.9238 32.7868 52.3658 33.9509 52.3658 35.4375V44.5078H50.0359V36.6477C50.0359 35.2962 49.7525 34.2939 49.1856 33.6407C48.6188 32.9875 47.7429 32.6588 46.558 32.6547C45.9195 32.6467 45.2865 32.7744 44.7009 33.0294C44.1602 33.2649 43.6835 33.6261 43.3103 34.083C43.0248 34.433 42.8157 34.839 42.6964 35.2747C42.5444 36.042 42.4826 36.8244 42.5122 37.606V44.4955H40.2652ZM36.8518 31.165V44.4955H34.6478V42.0782C34.1752 42.9902 33.4685 43.7598 32.6003 44.3081C31.7624 44.822 30.7958 45.0872 29.8131 45.073C27.9068 45.073 26.3628 44.4187 25.1933 43.101C24.0237 41.7833 23.4405 40.0295 23.4405 37.8794C23.4405 35.7293 24.0084 33.9448 25.1442 32.6578C26.2799 31.3708 27.7963 30.7166 29.6995 30.7166C30.7192 30.6718 31.729 30.9326 32.5996 31.4656C33.4702 31.9986 34.162 32.7795 34.5864 33.7083V31.165H36.8518ZM34.6478 37.9654C34.6478 36.4573 34.2334 35.2471 33.4199 34.3318C33.0205 33.8766 32.5249 33.5159 31.9691 33.2757C31.4133 33.0356 30.8111 32.9221 30.206 32.9434C28.839 32.9434 27.7728 33.3653 27.0074 34.2089C26.237 35.0536 25.8563 36.2331 25.8563 37.7473C25.8563 39.3609 26.2421 40.6018 27.0136 41.47C27.781 42.3454 28.8799 42.7816 30.295 42.7816C31.6518 42.7816 32.7201 42.3608 33.4905 41.51C34.261 40.6592 34.6478 39.4858 34.6478 37.9654ZM18.8575 44.4955V36.6477C18.8575 35.2962 18.5864 34.2939 18.0441 33.6407C17.5007 32.9834 16.6658 32.6547 15.5454 32.6547C14.9595 32.6494 14.38 32.7775 13.8509 33.0294C13.3365 33.274 12.8857 33.6347 12.5341 34.083C12.2659 34.4508 12.0739 34.8685 11.9692 35.3116C11.8273 36.0698 11.7686 36.8412 11.7943 37.6122V44.5016H9.59026V36.6477C9.59026 35.2962 9.31809 34.2939 8.77374 33.6407C8.23348 32.9834 7.39853 32.6547 6.27504 32.6547C5.68529 32.6504 5.10208 32.7784 4.56832 33.0294C4.04776 33.2711 3.59138 33.632 3.23609 34.083C2.98081 34.436 2.79726 34.8357 2.69583 35.2594C2.55427 36.0331 2.49766 36.82 2.527 37.606V44.4955H0.307648V31.165H2.55463V33.223C3.04266 32.4308 3.72261 31.7747 4.53148 31.3155C5.34844 30.89 6.25986 30.6787 7.18059 30.7012C8.14802 30.6679 9.10533 30.9074 9.94327 31.3923C10.7113 31.8706 11.3119 32.5758 11.6623 33.4103C12.1585 32.5732 12.8546 31.8724 13.6882 31.3708C14.5194 30.9131 15.4563 30.6821 16.4049 30.7012C17.8906 30.7012 19.0499 31.1189 19.8828 31.9544C20.7177 32.7868 21.1352 33.9509 21.1352 35.4375V44.5078L18.8575 44.4955Z" fill="#6E6E6E"/>
<path fill-rule="evenodd" clip-rule="evenodd" d="M148 7.8465C148 7.8465 126.776 4.07157 121.365 28.9725C144.415 33.9147 148 7.8465 148 7.8465Z" fill="#39642F"/>
<path fill-rule="evenodd" clip-rule="evenodd" d="M121.365 28.9722C121.365 28.9722 113.715 13.8571 137.345 3.58282C143.448 23.8366 121.365 28.9722 121.365 28.9722Z" fill="#87B550"/>
<path fill-rule="evenodd" clip-rule="evenodd" d="M121.365 28.9722C121.365 28.9722 125.048 15.7953 137.345 3.58282C143.448 23.8366 121.365 28.9722 121.365 28.9722Z" fill="#71962F"/>
<path fill-rule="evenodd" clip-rule="evenodd" d="M139.138 7.04784C139.138 7.04784 138.604 2.97768 142.963 1.9609C143.666 7.04784 139.138 7.04784 139.138 7.04784Z" fill="#87B550"/>
<path fill-rule="evenodd" clip-rule="evenodd" d="M139.138 7.04784C139.138 7.04784 141.268 4.2617 142.963 1.9609C143.666 7.04784 139.138 7.04784 139.138 7.04784Z" fill="#71962F"/>
<path fill-rule="evenodd" clip-rule="evenodd" d="M116.208 22.0456C116.208 22.0456 114.608 26.2602 118.823 27.5749C120.186 23.0685 116.208 22.0456 116.208 22.0456Z" fill="#71962F"/>
<path fill-rule="evenodd" clip-rule="evenodd" d="M116.208 22.0456C116.208 22.0456 117.709 25.4246 118.823 27.5749C120.186 23.0685 116.208 22.0456 116.208 22.0456Z" fill="#87B550"/>
<path fill-rule="evenodd" clip-rule="evenodd" d="M117.417 21.1245C117.417 21.1245 116.496 18.9435 119.062 17.297C119.839 20.6238 117.417 21.1245 117.417 21.1245Z" fill="#71962F"/>
<path fill-rule="evenodd" clip-rule="evenodd" d="M117.417 21.1245C117.417 21.1245 116.496 18.9435 119.062 17.297C117.304 20.7067 117.417 21.1245 117.417 21.1245Z" fill="#87B550"/>
</svg>
